<svg width="14" height="14" viewBox="0 0 14 14" fill="none" xmlns="http://www.w3.org/2000/svg">
<path d="M12.4546 5.78792C12.4546 5.4532 12.1832 5.18186 11.8485 5.18186H5.78792C5.4532 5.18186 5.18186 5.4532 5.18186 5.78792V11.8485C5.18186 12.1832 5.4532 12.4546 5.78792 12.4546H11.8485C12.1832 12.4546 12.4546 12.1832 12.4546 11.8485V5.78792ZM13.6667 11.8485C13.6667 12.8527 12.8527 13.6667 11.8485 13.6667H5.78792C4.78376 13.6667 3.96974 12.8527 3.96974 11.8485V5.78792C3.96974 4.78376 4.78376 3.96974 5.78792 3.96974H11.8485C12.8527 3.96974 13.6667 4.78376 13.6667 5.78792V11.8485Z" fill="#474E5A"/>
<path d="M8.81822 2.15156C8.81822 1.81961 8.54411 1.5455 8.21216 1.5455H2.15156C1.81961 1.5455 1.5455 1.81961 1.5455 2.15156V8.21216C1.5455 8.54411 1.81961 8.81822 2.15156 8.81822C2.48627 8.81822 2.75762 9.08956 2.75762 9.42428C2.75762 9.759 2.48627 10.0303 2.15156 10.0303C1.15017 10.0303 0.333374 9.21355 0.333374 8.21216V2.15156C0.333374 1.15017 1.15017 0.333374 2.15156 0.333374H8.21216C9.21355 0.333374 10.0303 1.15017 10.0303 2.15156C10.0303 2.48627 9.759 2.75762 9.42428 2.75762C9.08956 2.75762 8.81822 2.48627 8.81822 2.15156Z" fill="#474E5A"/>
</svg>
