<svg width="14" height="14" viewBox="0 0 14 14" fill="none" xmlns="http://www.w3.org/2000/svg">
<path d="M12.4547 5.78786C12.4547 5.45314 12.1834 5.1818 11.8486 5.1818H5.78804C5.45332 5.1818 5.18198 5.45314 5.18198 5.78786V11.8485C5.18198 12.1832 5.45332 12.4545 5.78804 12.4545H11.8486C12.1834 12.4545 12.4547 12.1832 12.4547 11.8485V5.78786ZM13.6668 11.8485C13.6668 12.8526 12.8528 13.6666 11.8486 13.6666H5.78804C4.78389 13.6666 3.96986 12.8526 3.96986 11.8485V5.78786C3.96986 4.7837 4.78389 3.96968 5.78804 3.96968H11.8486C12.8528 3.96968 13.6668 4.7837 13.6668 5.78786V11.8485Z" fill="#8733FF"/>
<path d="M8.81834 2.15149C8.81834 1.81955 8.54423 1.54543 8.21228 1.54543H2.15168C1.81973 1.54543 1.54562 1.81955 1.54562 2.15149V8.2121C1.54562 8.54405 1.81973 8.81816 2.15168 8.81816C2.4864 8.81816 2.75774 9.0895 2.75774 9.42422C2.75774 9.75894 2.4864 10.0303 2.15168 10.0303C1.15029 10.0303 0.333496 9.21348 0.333496 8.2121V2.15149C0.333496 1.15011 1.15029 0.333313 2.15168 0.333313H8.21228C9.21367 0.333313 10.0305 1.15011 10.0305 2.15149C10.0305 2.48621 9.75912 2.75756 9.4244 2.75756C9.08969 2.75756 8.81834 2.48621 8.81834 2.15149Z" fill="#8733FF"/>
</svg>
