<svg width="16" height="16" viewBox="0 0 16 16" fill="none" xmlns="http://www.w3.org/2000/svg">
<g clip-path="url(#clip0_1_11058)">
<path d="M12.0208 11.078L14.8762 13.9327L13.9328 14.876L11.0782 12.0207C10.016 12.8722 8.69483 13.3353 7.3335 13.3334C4.0215 13.3334 1.3335 10.6454 1.3335 7.33337C1.3335 4.02137 4.0215 1.33337 7.3335 1.33337C10.6455 1.33337 13.3335 4.02137 13.3335 7.33337C13.3354 8.69471 12.8723 10.0159 12.0208 11.078ZM10.6835 10.5834C11.5296 9.7133 12.0021 8.54699 12.0002 7.33337C12.0002 4.75471 9.9115 2.66671 7.3335 2.66671C4.75483 2.66671 2.66683 4.75471 2.66683 7.33337C2.66683 9.91137 4.75483 12 7.3335 12C8.54712 12.002 9.71342 11.5294 10.5835 10.6834L10.6835 10.5834Z" fill="#857F96"/>
</g>
<defs>
<clipPath id="clip0_1_11058">
<rect width="16" height="16" fill="white"/>
</clipPath>
</defs>
</svg>
